<svg width="23" height="21" viewBox="0 0 23 21" fill="none" xmlns="http://www.w3.org/2000/svg">
<g id="Heart">
<path id="Vector" d="M11.5004 19.2493L2.97805 10.3608C2.22905 9.61234 1.73469 8.6471 1.5651 7.60193C1.3955 6.55676 1.55928 5.48472 2.0332 4.53787V4.53787C2.39057 3.82334 2.91261 3.20394 3.55629 2.73073C4.19998 2.25751 4.9469 1.94401 5.73551 1.81606C6.52411 1.68812 7.33184 1.74938 8.09212 1.99481C8.85241 2.24024 9.5435 2.66281 10.1084 3.2277L11.5004 4.61875L12.8923 3.2277C13.4573 2.66281 14.1484 2.24024 14.9087 1.99481C15.6689 1.74938 16.4767 1.68812 17.2653 1.81606C18.0539 1.94401 18.8008 2.25751 19.4445 2.73073C20.0882 3.20394 20.6102 3.82334 20.9676 4.53787C21.4409 5.48436 21.6044 6.55576 21.435 7.60033C21.2655 8.6449 20.7718 9.6097 20.0236 10.3581L11.5004 19.2493Z" stroke="#A84448" stroke-width="2" stroke-linecap="round" stroke-linejoin="round"/>
</g>
</svg>
