<svg width="36" height="36" viewBox="0 0 36 36" fill="none" xmlns="http://www.w3.org/2000/svg">
<rect width="36" height="36" rx="8" fill="white"/>
<path fill-rule="evenodd" clip-rule="evenodd" d="M9 18C9 14.4049 9 12.6073 9.85669 11.3126C10.2392 10.7344 10.7344 10.2392 11.3126 9.85669C12.6073 9 14.4049 9 18 9C21.5951 9 23.3927 9 24.6874 9.85669C25.2656 10.2392 25.7608 10.7344 26.1433 11.3126C27 12.6073 27 14.4049 27 18C27 21.5951 27 23.3927 26.1433 24.6874C25.7608 25.2656 25.2656 25.7608 24.6874 26.1433C23.3927 27 21.5951 27 18 27C14.4049 27 12.6073 27 11.3126 26.1433C10.7344 25.7608 10.2392 25.2656 9.85669 24.6874C9 23.3927 9 21.5951 9 18ZM22.6625 18C22.6625 20.5734 20.5765 22.6595 18.0031 22.6595C15.4298 22.6595 13.3437 20.5734 13.3437 18C13.3437 15.4267 15.4298 13.3406 18.0031 13.3406C20.5765 13.3406 22.6625 15.4267 22.6625 18ZM18.0031 21.083C19.7058 21.083 21.0861 19.7027 21.0861 18C21.0861 16.2973 19.7058 14.917 18.0031 14.917C16.3004 14.917 14.9201 16.2973 14.9201 18C14.9201 19.7027 16.3004 21.083 18.0031 21.083ZM22.8448 14.2014C23.4495 14.2014 23.9396 13.7112 23.9396 13.1065C23.9396 12.5019 23.4495 12.0117 22.8448 12.0117C22.2402 12.0117 21.75 12.5019 21.75 13.1065C21.75 13.7112 22.2402 14.2014 22.8448 14.2014Z" fill="#A84448"/>
</svg>
